<?xml version="1.0" encoding="UTF-8" standalone="no"?>
<!-- Created with Inkscape (http://www.inkscape.org/) -->

<svg
   width="256"
   height="256"
   viewBox="0 0 67.733333 67.733333"
   version="1.1"
   id="svg5"
   inkscape:version="1.1.2 (0a00cf5339, 2022-02-04)"
   sodipodi:docname="wagtail.svg"
   xmlns:inkscape="http://www.inkscape.org/namespaces/inkscape"
   xmlns:sodipodi="http://sodipodi.sourceforge.net/DTD/sodipodi-0.dtd"
   xmlns="http://www.w3.org/2000/svg"
   xmlns:svg="http://www.w3.org/2000/svg">
  <sodipodi:namedview
     id="namedview7"
     pagecolor="#ffffff"
     bordercolor="#111111"
     borderopacity="1"
     inkscape:pageshadow="0"
     inkscape:pageopacity="0"
     inkscape:pagecheckerboard="1"
     inkscape:document-units="mm"
     showgrid="false"
     fit-margin-top="0"
     fit-margin-left="0"
     fit-margin-right="0"
     fit-margin-bottom="0"
     units="px"
     inkscape:zoom="2.1266375"
     inkscape:cx="121.7885"
     inkscape:cy="115.20534"
     inkscape:window-width="1920"
     inkscape:window-height="1021"
     inkscape:window-x="0"
     inkscape:window-y="27"
     inkscape:window-maximized="1"
     inkscape:current-layer="layer1" />
  <defs
     id="defs2" />
  <g
     inkscape:label="Layer 1"
     inkscape:groupmode="layer"
     id="layer1"
     transform="translate(-66.136892,-97.97945)">
    <path
       style="fill:none;stroke:#fffffc;stroke-width:0.31223px;stroke-linecap:butt;stroke-linejoin:miter;stroke-opacity:1"
       d="m 87.05133,121.99495 c 1.59461,-7.69368 6.84493,-11.0592 14.01757,-12.1488 5.28069,0.32715 10.40143,-1.31582 15.91883,1.92716 3.55183,3.23582 9.01466,3.66859 9.65115,11.18058 l 7.5871,10.34261 2.54046,1.57864 c 13.1792,3.66255 20.39019,7.32511 25.94512,10.98766"
       id="path869-3"
       sodipodi:nodetypes="ccccccc" />
    <path
       style="fill:none;stroke:#fffffc;stroke-width:0.31223px;stroke-linecap:butt;stroke-linejoin:miter;stroke-opacity:1"
       d="m 104.37802,188.25386 c -3.71097,-3.39119 -5.72863,-6.78237 -6.99614,-10.17355 l -1.61069,-3.91921 c -1.0046,-1.21085 -1.93548,-0.79345 -3.37728,-3.57429 -2.60343,-13.35796 -2.46221,-19.28093 -0.62386,-20.60648 0.9611,-4.62055 -1.6082,-9.24109 -3.09529,-13.86163 l -3.62186,-4.65336"
       id="path871-6"
       sodipodi:nodetypes="ccccccc" />
    <path
       style="fill:none;stroke:#fffffc;stroke-width:0.31223px;stroke-linecap:butt;stroke-linejoin:miter;stroke-opacity:1"
       d="m 87.05135,121.99492 2.20128,-4.95761 c 1.58821,-1.72629 3.45758,-3.22497 5.60411,-4.49929 2.57425,-0.38362 6.02067,-2.45522 7.31428,-0.36061 1.67906,0.68729 10.65815,0.95452 4.78351,2.07644 l 0.74182,1.16521 1.7798,0.069 2.26137,1.75108 c 3.40319,-0.63308 5.91521,0.1355 6.81225,3.44416 4.74487,0.56226 4.34247,3.04366 5.60871,4.90292 1.11562,2.1794 0.1305,4.3588 -0.0638,6.5382 l 2.21308,-1.09599 c 1.35198,2.15248 2.47265,2.33374 3.69756,3.40334 l -0.13279,2.38961 c -2.24339,5.52439 -3.72843,5.43401 -5.50941,7.53481 -3.93593,1.91639 -8.04339,3.55687 -13.16783,3.56631 l -0.66109,-0.90472 c 4.94154,-3.51237 9.58255,-7.01449 9.3433,-10.35027 -4.70924,0.29804 -9.41849,-0.64672 -14.12773,-1.16939 -7.18131,0.0846 -10.81482,-2.45869 -15.39287,-4.30236 -1.53477,0.24571 -2.77747,0.68651 -5.30396,0.26955 l -12.45503,-1.95267 17.93238,-0.50295 c -0.75462,-2.04665 -3.98405,-2.91223 -6.63139,-4.0556 l -10.28416,-1.84958 c 1.23478,-1.37184 2.74348,-0.88764 4.13659,-1.18667 z"
       id="path1958-7"
       sodipodi:nodetypes="ccccccccccccccccccccccccccc" />
    <ellipse
       style="fill:none;fill-opacity:1;stroke:#fffffc;stroke-width:1.25679;stroke-linecap:round;stroke-linejoin:round;stroke-opacity:1"
       id="path3031-5"
       cx="106.7295"
       cy="124.81731"
       rx="2.3973777"
       ry="2.0816677" />
    <ellipse
       style="opacity:0.5;fill:none;fill-opacity:1;stroke:#fffffc;stroke-width:10.9192;stroke-linecap:round;stroke-linejoin:round;stroke-opacity:1"
       id="path3531-3"
       cx="105.8507"
       cy="123.25882"
       rx="0.66511172"
       ry="0.61472225" />
    <path
       style="fill:none;stroke:#fffffc;stroke-width:0.31223px;stroke-linecap:butt;stroke-linejoin:miter;stroke-opacity:1"
       d="m 87.05132,121.99495 c 1.96026,1.34887 2.72162,2.86209 6.11781,4.0141 1.56765,0.73928 3.12847,1.53933 4.59938,3.13811 -2.41276,0.22725 -4.82551,0.48811 -7.23828,-0.13744"
       id="path4393-5"
       sodipodi:nodetypes="cccc" />
    <path
       style="fill:none;stroke:#fffffc;stroke-width:0.31223px;stroke-linecap:butt;stroke-linejoin:miter;stroke-opacity:1"
       d="m 90.35686,131.19579 c -0.0218,0.2758 0.28306,-3.56894 0.17337,-2.18607"
       id="path4869-6"
       sodipodi:nodetypes="cc" />
    <path
       style="fill:none;fill-opacity:1;stroke:#fffffc;stroke-width:0.295487;stroke-linecap:round;stroke-linejoin:round;stroke-opacity:1"
       d="m 92.78514,129.17604 c -0.16151,-0.0131 -0.66785,-0.0775 -1.12519,-0.14331 -0.6293,-0.0904 -0.84179,-0.1486 -0.87363,-0.23914 -0.0231,-0.0658 -0.12795,-0.20601 -0.23289,-0.31158 -0.10491,-0.10562 -0.30074,-0.32939 -0.43509,-0.49737 -0.61447,-0.76826 -1.89372,-1.48679 -4.56404,-2.56352 l -1.65171,-0.66599 -4.77161,-0.85215 c -2.62439,-0.46867 -4.84683,-0.87557 -4.93877,-0.90421 -0.15753,-0.0491 -0.14908,-0.0638 0.14682,-0.25579 0.82912,-0.53798 1.80628,-0.60952 7.87515,-0.57656 l 4.77161,0.026 0.36705,0.275 c 0.20187,0.15126 0.7769,0.62765 1.27784,1.05867 0.50094,0.43101 1.12697,0.9379 1.39118,1.12645 0.62642,0.447 1.77827,1.0454 2.65316,1.37832 1.42674,0.54294 3.21571,1.61228 4.15132,2.48141 l 0.50969,0.47349 -0.44021,0.0484 c -1.35828,0.14923 -3.22565,0.21374 -4.11068,0.14199 z"
       id="path5505-2" />
    <path
       style="fill:none;stroke:#fffffb;stroke-width:1.5;stroke-linecap:butt;stroke-linejoin:miter;stroke-miterlimit:4;stroke-dasharray:none;stroke-opacity:1"
       d="m 90.465223,113.11479 c -3.575583,0.87128 -2.919436,5.51679 -3.479435,9.07763 -8.756972,-0.7725 -12.153614,-0.20299 -13.371048,0.91209 l 10.28416,1.84958 6.63139,4.0556 -17.93238,0.50295 13.052486,2.28676"
       id="path7548"
       sodipodi:nodetypes="ccccccc" />
    <path
       style="fill:none;fill-opacity:1;stroke:#fffffc;stroke-width:0.295487;stroke-linecap:round;stroke-linejoin:round;stroke-opacity:1"
       d="m 85.84794,131.38735 c -0.0606,-0.0123 -2.51507,-0.39608 -5.45447,-0.85278 -3.17291,-0.49296 -5.27569,-0.85013 -5.17536,-0.87904 0.0929,-0.0268 1.63901,-0.0853 3.43571,-0.13008 1.79669,-0.0447 5.14228,-0.13541 7.43463,-0.20146 2.29235,-0.0661 4.18445,-0.1035 4.20468,-0.0833 0.0311,0.0312 -0.10196,1.75872 -0.13819,1.79393 -0.007,0.007 -0.5195,0.0977 -1.13911,0.2022 -0.8528,0.14384 -1.36122,0.18794 -2.09217,0.18149 -0.53108,-0.005 -1.01516,-0.0186 -1.07572,-0.0309 z"
       id="path5544-9" />
    <path
       style="fill:none;stroke:#fffffc;stroke-width:0.31223px;stroke-linecap:butt;stroke-linejoin:miter;stroke-opacity:1"
       d="M 104.37802,188.25386 162.71156,145.8628"
       id="path5653-1" />
    <path
       style="fill:none;fill-opacity:1;stroke:#fffffc;stroke-width:0.885201;stroke-linecap:round;stroke-linejoin:round;stroke-opacity:1"
       d="m 102.22122,188.82957 c -2.959608,-3.33076 -4.06791,-5.17263 -6.075424,-10.0966 -1.144751,-2.80779 -1.238929,-2.95795 -2.403981,-3.83322 -2.017654,-1.51575 -2.30418,-2.18652 -3.184947,-7.45578 -1.62145,-9.7006 -1.617572,-14.77142 0.01268,-16.55193 0.279037,-0.30475 0.352354,-0.85061 0.338802,-2.5223 -0.02067,-2.53595 -0.385294,-4.03652 -2.165928,-8.91108 -1.196483,-3.27543 -1.38897,-3.64086 -3.023172,-5.73917 l -1.745319,-2.24101 1.618211,-0.0125 c 0.890014,-0.007 2.016376,-0.0856 2.503017,-0.17497 0.773304,-0.14191 1.191454,-0.027 3.318029,0.91184 5.440004,2.40163 8.047102,3.10827 12.630852,3.42354 1.69099,0.11631 4.6174,0.41264 6.50315,0.65851 1.88574,0.24588 4.80775,0.51064 6.49335,0.58837 l 3.0647,0.14129 -0.12294,0.74903 c -0.29562,1.80059 -2.87628,4.55467 -7.34698,7.8407 l -2.53827,1.86566 0.48189,0.6689 0.48188,0.66891 1.78932,-0.14735 c 3.47555,-0.28621 7.11623,-1.26827 10.721,-2.89195 3.84496,-1.73188 7.50701,-6.49552 7.84138,-10.20013 l 0.13406,-1.48546 -1.04173,-0.7009 c -1.16721,-0.78532 -2.2106,-1.74625 -2.76825,-2.5495 l -0.37266,-0.53678 -1.02815,0.49371 -1.02816,0.49374 0.19449,-1.15944 c 0.107,-0.63768 0.19288,-1.89731 0.19092,-2.79918 -0.004,-1.52586 -0.0802,-1.79166 -1.10679,-3.82613 -0.93937,-1.86159 -1.25986,-2.29002 -2.15775,-2.88441 -0.57999,-0.38394 -1.50411,-0.7647 -2.0536,-0.84614 -0.91179,-0.13515 -1.04475,-0.23653 -1.52173,-1.16035 -1.09608,-2.12292 -2.46948,-2.87064 -5.27267,-2.87064 -1.81014,0 -1.87126,-0.0177 -3.03327,-0.87454 -0.87236,-0.64331 -1.39759,-0.87454 -1.98653,-0.87454 -0.726,0 -1.33151,-0.30242 -1.33151,-0.66501 0,-0.0772 0.39817,-0.25822 0.88481,-0.40234 1.02476,-0.30347 1.15899,-0.80815 0.30069,-1.13069 -0.32126,-0.12078 -1.9388,-0.41506 -3.59454,-0.65407 -1.7638,-0.2546 -3.10202,-0.5541 -3.23162,-0.72323 -0.71675,-0.93534 -2.149087,-1.01853 -4.786411,-0.27799 -1.017313,0.28567 -2.148288,0.58648 -2.513271,0.66848 -0.689386,0.15486 -2.729804,1.37932 -3.593653,2.15654 -0.273261,0.24585 -0.554972,0.38955 -0.62603,0.31931 -0.185382,-0.18324 2.012284,-1.85415 3.261799,-2.48 1.37322,-0.68779 3.041701,-1.28929 4.798813,-1.73003 1.941093,-0.48688 13.029873,-0.58773 14.850663,-0.13507 1.61937,0.40259 3.81871,1.39314 4.82508,2.17313 0.44857,0.34767 1.91052,1.30693 3.24879,2.13169 4.02933,2.48324 5.42822,4.23033 6.13524,7.66239 0.30905,1.50015 0.46419,1.75066 4.28177,6.91415 4.72202,6.38679 4.94545,6.56881 9.83043,8.0086 7.10334,2.0936 13.5795,4.58318 18.24584,7.01409 2.91031,1.51611 5.85952,3.26446 5.85302,3.46976 -0.006,0.15986 -60.92237,43.95039 -61.3824,44.12488 -0.1537,0.0583 -0.96028,-0.66109 -1.79695,-1.60269 z"
       id="path5692-2" />
    <path
       style="fill:none;fill-opacity:1;stroke:#fffffc;stroke-width:0.295487;stroke-linecap:round;stroke-linejoin:round;stroke-opacity:1"
       d="m 111.04655,147.40174 -0.23776,-0.3407 0.48861,-0.3477 c 6.28399,-4.47186 8.75235,-7.22563 8.75825,-9.77098 l 9.5e-4,-0.46731 -1.00939,0.0334 c -2.37934,0.0787 -4.84158,-0.11234 -9.7084,-0.75341 -2.05868,-0.27118 -3.2549,-0.39108 -4.40456,-0.44147 -2.36671,-0.10373 -3.76172,-0.28833 -5.50571,-0.72852 -1.67252,-0.42216 -3.02401,-0.9318 -6.11299,-2.30517 -1.22044,-0.54261 -2.34584,-1.03867 -2.50089,-1.10236 -0.26982,-0.11081 -0.28019,-0.12765 -0.24207,-0.39207 0.022,-0.15195 0.0605,-0.56068 0.0858,-0.9083 l 0.0459,-0.63204 0.45307,0.0959 c 0.8955,0.18964 2.18597,0.27156 3.49957,0.22215 1.31311,-0.0495 3.35995,-0.22393 3.42837,-0.29234 0.061,-0.061 -0.70076,-0.83201 -1.2995,-1.31535 -1.13029,-0.91245 -2.54586,-1.71348 -4.18088,-2.36582 -1.48021,-0.59058 -2.25998,-1.0911 -3.89542,-2.50041 -0.465,-0.40071 -0.97314,-0.82987 -1.12918,-0.95368 l -0.28373,-0.22513 1.04669,-2.35706 c 0.57568,-1.29638 1.14664,-2.47833 1.26882,-2.62655 0.40321,-0.48917 1.98145,-1.87704 3.01327,-2.64982 1.52894,-1.14509 2.17577,-1.52233 2.87577,-1.67715 0.323,-0.0714 1.06626,-0.27694 1.6517,-0.45666 2.87824,-0.88358 3.88892,-0.90499 4.65248,-0.0985 0.41659,0.43998 0.52834,0.46894 3.39878,0.88077 2.68277,0.38489 3.40062,0.52315 3.40062,0.65494 0,0.0675 -0.84732,0.3235 -1.48654,0.44915 -0.23216,0.0457 -0.4221,0.10798 -0.4221,0.13848 0,0.0304 0.20646,0.36678 0.4588,0.74725 l 0.45882,0.69174 0.88091,0.0211 0.8809,0.0211 1.13553,0.8843 c 1.10589,0.86123 1.14325,0.8832 1.43149,0.84216 0.16278,-0.0231 0.80799,-0.0622 1.4338,-0.0866 0.89129,-0.0348 1.25715,-0.0194 1.68842,0.0716 1.51882,0.32032 2.5875,1.31189 3.13976,2.91325 l 0.19937,0.5781 0.33084,0.0435 c 0.69163,0.091 1.78721,0.40228 2.32266,0.6598 0.88374,0.42507 1.38653,0.98056 1.93905,2.14232 0.24552,0.5162 0.64119,1.33497 0.87928,1.81947 0.25751,0.52402 0.46774,1.06713 0.51889,1.34054 0.12942,0.6918 0.0424,2.13626 -0.21115,3.50449 -0.27046,1.45955 -0.3358,2.01875 -0.23588,2.01875 0.0412,0 0.57541,-0.25063 1.18704,-0.55696 0.90355,-0.45253 1.12331,-0.5369 1.17198,-0.44994 0.18768,0.33537 0.79381,1.05785 1.18281,1.40988 0.24692,0.22345 0.83716,0.67246 1.31164,0.99778 0.47449,0.32534 0.89747,0.63341 0.93996,0.68462 0.0536,0.0646 0.0554,0.43646 0.006,1.21109 -0.07,1.09839 -0.0772,1.13176 -0.40951,1.90221 -0.79614,1.84534 -1.6928,3.27905 -2.65914,4.25187 -0.35144,0.35379 -1.07474,1.04852 -1.60736,1.54386 -0.96094,0.89368 -0.97681,0.90449 -2.06348,1.40505 -4.06739,1.87359 -7.32346,2.75601 -10.76338,2.91695 l -0.96005,0.045 z m -3.08386,-20.07968 c 1.53869,-0.59638 2.22498,-2.22535 1.53123,-3.63454 -0.28156,-0.57193 -0.74267,-1.00815 -1.38973,-1.3147 -0.46612,-0.22083 -0.53406,-0.23231 -1.37507,-0.23231 -0.87505,0 -0.89084,0.004 -1.44408,0.27646 -0.62326,0.30802 -1.09969,0.77353 -1.38647,1.3547 -0.1449,0.29365 -0.17327,0.46467 -0.17393,1.04829 -6.3e-4,0.62308 0.0211,0.73915 0.20532,1.08941 0.39762,0.75624 1.05078,1.28656 1.87745,1.52435 0.51506,0.14814 1.63458,0.0902 2.15528,-0.11164 z"
       id="path5768-7" />
    <path
       style="fill:none;stroke:#000000;stroke-width:0.31223px;stroke-linecap:butt;stroke-linejoin:miter;stroke-opacity:1"
       d="m 87.051325,121.99495 c 1.594617,-7.69368 6.844931,-11.0592 14.017575,-12.1488 5.28069,0.32715 10.40143,-1.31582 15.91883,1.92716 3.55183,3.23582 9.01466,3.66859 9.65115,11.18058 l 7.5871,10.34261 2.54046,1.57864 c 13.1792,3.66255 20.39019,7.32511 25.94512,10.98766"
       id="path869"
       sodipodi:nodetypes="ccccccc" />
    <path
       style="fill:none;stroke:#000000;stroke-width:0.31223px;stroke-linecap:butt;stroke-linejoin:miter;stroke-opacity:1"
       d="m 104.37802,188.25386 c -3.71097,-3.39119 -5.728634,-6.78237 -6.996138,-10.17355 l -1.610697,-3.91921 c -1.004593,-1.21085 -1.935479,-0.79345 -3.377282,-3.57429 -2.603425,-13.35796 -2.462208,-19.28093 -0.623851,-20.60648 0.961096,-4.62055 -1.608207,-9.24109 -3.095296,-13.86163 l -3.621858,-4.65336"
       id="path871"
       sodipodi:nodetypes="ccccccc" />
    <path
       style="fill:none;stroke:#000000;stroke-width:0.31223px;stroke-linecap:butt;stroke-linejoin:miter;stroke-opacity:1"
       d="m 87.051346,121.99492 2.201285,-4.95761 c 1.588211,-1.72629 3.457582,-3.22497 5.604107,-4.49929 2.574247,-0.38362 6.020672,-2.45522 7.314282,-0.36061 1.67906,0.68729 10.65815,0.95452 4.78351,2.07644 l 0.74182,1.16521 1.7798,0.069 2.26137,1.75108 c 3.40319,-0.63308 5.91521,0.1355 6.81225,3.44416 4.74487,0.56226 4.34247,3.04366 5.60871,4.90292 1.11562,2.1794 0.1305,4.3588 -0.0638,6.5382 l 2.21308,-1.09599 c 1.35198,2.15248 2.47265,2.33374 3.69756,3.40334 l -0.13279,2.38961 c -2.24339,5.52439 -3.72843,5.43401 -5.50941,7.53481 -3.93593,1.91639 -8.04339,3.55687 -13.16783,3.56631 l -0.66109,-0.90472 c 4.94154,-3.51237 9.58255,-7.01449 9.3433,-10.35027 -4.70924,0.29804 -9.41849,-0.64672 -14.12773,-1.16939 -7.181309,0.0846 -10.814823,-2.45869 -15.392876,-4.30236 -1.534768,0.24571 -2.777462,0.68651 -5.303956,0.26955 l -12.455035,-1.95267 17.932381,-0.50295 c -0.754619,-2.04665 -3.984043,-2.91223 -6.631387,-4.0556 l -10.284164,-1.84958 c 1.234788,-1.37184 2.743485,-0.88764 4.136596,-1.18667 z"
       id="path1958"
       sodipodi:nodetypes="ccccccccccccccccccccccccccc" />
    <ellipse
       style="opacity:1;fill:#000000;fill-opacity:1;stroke:#000000;stroke-width:1.25679;stroke-linecap:round;stroke-linejoin:round;stroke-opacity:1"
       id="path3031"
       cx="106.7295"
       cy="124.81731"
       rx="2.3973777"
       ry="2.0816677" />
    <ellipse
       style="opacity:0.5;fill:#ffffff;fill-opacity:1;stroke:none;stroke-width:10.9192;stroke-linecap:round;stroke-linejoin:round;stroke-opacity:1"
       id="path3531"
       cx="105.85069"
       cy="123.25882"
       rx="0.66511172"
       ry="0.61472225" />
    <path
       style="fill:none;stroke:#000000;stroke-width:0.31223px;stroke-linecap:butt;stroke-linejoin:miter;stroke-opacity:1"
       d="m 87.051322,121.99495 c 1.960259,1.34887 2.72162,2.86209 6.117802,4.0141 1.567659,0.73928 3.128473,1.53933 4.599389,3.13811 -2.412764,0.22725 -4.825517,0.48811 -7.238281,-0.13744"
       id="path4393"
       sodipodi:nodetypes="cccc" />
    <path
       style="fill:none;stroke:#000000;stroke-width:0.31223px;stroke-linecap:butt;stroke-linejoin:miter;stroke-opacity:1"
       d="m 90.356854,131.19579 c -0.02183,0.2758 0.283067,-3.56894 0.173378,-2.18607"
       id="path4869"
       sodipodi:nodetypes="cc" />
    <path
       style="opacity:1;fill:#000000;fill-opacity:1;stroke:none;stroke-width:0.295487;stroke-linecap:round;stroke-linejoin:round;stroke-opacity:1"
       d="m 92.785136,129.17604 c -0.161506,-0.0131 -0.667844,-0.0775 -1.125186,-0.14331 -0.629303,-0.0904 -0.841789,-0.1486 -0.873628,-0.23914 -0.02313,-0.0658 -0.127956,-0.20601 -0.232889,-0.31158 -0.10491,-0.10562 -0.300745,-0.32939 -0.435097,-0.49737 -0.614465,-0.76826 -1.893717,-1.48679 -4.564035,-2.56352 l -1.651711,-0.66599 -4.771614,-0.85215 c -2.624387,-0.46867 -4.846832,-0.87557 -4.938768,-0.90421 -0.157533,-0.0491 -0.149077,-0.0638 0.146817,-0.25579 0.829128,-0.53798 1.806285,-0.60952 7.87515,-0.57656 l 4.771613,0.026 0.367046,0.275 c 0.201876,0.15126 0.776905,0.62765 1.277843,1.05867 0.50094,0.43101 1.126972,0.9379 1.391181,1.12645 0.626418,0.447 1.778274,1.0454 2.653165,1.37832 1.426733,0.54294 3.215705,1.61228 4.151311,2.48141 l 0.50969,0.47349 -0.440207,0.0484 c -1.358277,0.14923 -3.225653,0.21374 -4.110681,0.14199 z"
       id="path5505" />
    <path
       style="opacity:1;fill:#000000;fill-opacity:1;stroke:none;stroke-width:0.295487;stroke-linecap:round;stroke-linejoin:round;stroke-opacity:1"
       d="m 85.847941,131.38735 c -0.06056,-0.0123 -2.515072,-0.39608 -5.45447,-0.85278 -3.172908,-0.49296 -5.27569,-0.85013 -5.175364,-0.87904 0.09294,-0.0268 1.639014,-0.0853 3.435709,-0.13008 1.796697,-0.0447 5.142278,-0.13541 7.434631,-0.20146 2.29235,-0.0661 4.184456,-0.1035 4.204683,-0.0833 0.03115,0.0312 -0.10196,1.75872 -0.138188,1.79393 -0.0071,0.007 -0.519504,0.0977 -1.139116,0.2022 -0.852795,0.14384 -1.361222,0.18794 -2.092169,0.18149 -0.531082,-0.005 -1.015155,-0.0186 -1.075716,-0.0309 z"
       id="path5544" />
    <path
       style="fill:none;stroke:#000000;stroke-width:0.31223px;stroke-linecap:butt;stroke-linejoin:miter;stroke-opacity:1"
       d="M 104.37802,188.25386 162.71156,145.8628"
       id="path5653" />
    <path
       style="opacity:1;fill:#000000;fill-opacity:1;stroke:none;stroke-width:0.835766;stroke-linecap:round;stroke-linejoin:round;stroke-opacity:1"
       d="m 102.77836,186.26454 c -2.77805,-3.16315 -3.818376,-4.91234 -5.702745,-9.58853 -1.074526,-2.6665 -1.162926,-2.80911 -2.256521,-3.64033 -1.893882,-1.43948 -2.162835,-2.07649 -2.989578,-7.0806 -1.521989,-9.21245 -1.518343,-14.02811 0.01192,-15.71902 0.26192,-0.28941 0.330742,-0.80781 0.318021,-2.39538 -0.01935,-2.40834 -0.36166,-3.83339 -2.033072,-8.46266 -1.123088,-3.11061 -1.30377,-3.45765 -2.837724,-5.45037 l -1.638265,-2.12825 1.518951,-0.0119 c 0.835424,-0.007 1.892692,-0.0813 2.349482,-0.16617 0.725871,-0.13477 1.118367,-0.0256 3.114502,0.86595 5.106306,2.28078 7.553489,2.95187 11.856049,3.25127 1.58725,0.11046 4.33415,0.39187 6.10423,0.62538 1.77007,0.2335 4.51284,0.48494 6.09504,0.55875 l 2.87672,0.13419 -0.11541,0.71134 c -0.27748,1.70998 -2.69984,4.32547 -6.89631,7.44614 l -2.38257,1.77179 0.45233,0.63524 0.45232,0.63524 1.67957,-0.13993 c 3.26235,-0.27181 6.67971,-1.20445 10.06336,-2.74643 3.60911,-1.64473 7.04654,-6.16866 7.36039,-9.68685 l 0.12584,-1.41071 -0.97783,-0.66563 c -1.09561,-0.7458 -2.075,-1.65838 -2.59845,-2.4212 l -0.3498,-0.50977 -0.96508,0.46887 -0.96509,0.46888 0.18256,-1.10109 c 0.10043,-0.60559 0.18105,-1.80184 0.17921,-2.65832 -0.004,-1.44908 -0.0753,-1.7015 -1.0389,-3.63359 -0.88175,-1.76792 -1.18258,-2.1748 -2.0254,-2.73927 -0.54441,-0.36462 -1.41184,-0.72622 -1.92763,-0.80356 -0.85586,-0.12835 -0.98066,-0.22463 -1.42838,-1.10196 -1.02885,-2.01609 -2.318,-2.72619 -4.94924,-2.72619 -1.69911,0 -1.75649,-0.0168 -2.84722,-0.83053 -0.81884,-0.61094 -1.31186,-0.83053 -1.86467,-0.83053 -0.68146,0 -1.24983,-0.28721 -1.24983,-0.63156 0,-0.0733 0.37375,-0.24522 0.83053,-0.38208 0.96191,-0.2882 1.0879,-0.76749 0.28225,-1.0738 -0.30156,-0.1147 -1.81988,-0.39417 -3.37404,-0.62115 -1.6556,-0.2418 -2.91173,-0.52622 -3.03338,-0.68684 -0.67278,-0.88828 -2.01725,-0.96728 -4.492798,-0.264 -0.954912,0.27129 -2.016516,0.55696 -2.359106,0.63484 -0.647099,0.14707 -2.562363,1.30991 -3.373222,2.04802 -0.256491,0.23348 -0.520925,0.36995 -0.587623,0.30325 -0.174015,-0.17402 1.888842,-1.76086 3.061716,-2.35521 1.288994,-0.65318 2.855118,-1.22441 4.504451,-1.64298 1.822032,-0.46238 12.230582,-0.55815 13.939682,-0.12827 1.52004,0.38233 3.58447,1.32303 4.52911,2.06378 0.42105,0.33017 1.79333,1.24116 3.04951,2.02442 3.78217,2.35828 5.09525,4.01745 5.7589,7.27681 0.29009,1.42466 0.43571,1.66257 4.01913,6.56622 4.43236,6.0654 4.64209,6.23826 9.22743,7.6056 6.66761,1.98825 12.74652,4.35256 17.12663,6.66114 2.73178,1.43981 5.50009,3.10019 5.49399,3.29516 -0.005,0.15182 -57.18536,41.73877 -57.61717,41.90448 -0.14427,0.0553 -0.90137,-0.62783 -1.68671,-1.52204 z"
       id="path5692" />
    <path
       style="opacity:1;fill:#ffffff;fill-opacity:1;stroke:none;stroke-width:0.295487;stroke-linecap:round;stroke-linejoin:round;stroke-opacity:1"
       d="m 111.04655,147.40174 -0.23776,-0.3407 0.48861,-0.3477 c 6.28399,-4.47186 8.75235,-7.22563 8.75825,-9.77098 l 9.5e-4,-0.46731 -1.00939,0.0334 c -2.37934,0.0787 -4.84158,-0.11234 -9.7084,-0.75341 -2.05868,-0.27118 -3.2549,-0.39108 -4.40456,-0.44147 -2.36671,-0.10373 -3.76172,-0.28833 -5.505713,-0.72852 -1.672521,-0.42216 -3.024013,-0.9318 -6.112988,-2.30517 -1.220443,-0.54261 -2.345842,-1.03867 -2.500893,-1.10236 -0.269814,-0.11081 -0.280187,-0.12765 -0.242071,-0.39207 0.02195,-0.15195 0.06054,-0.56068 0.08579,-0.9083 l 0.04591,-0.63204 0.453069,0.0959 c 0.895507,0.18964 2.185976,0.27156 3.499574,0.22215 1.313115,-0.0495 3.359947,-0.22393 3.428368,-0.29234 0.06101,-0.061 -0.700757,-0.83201 -1.299496,-1.31535 -1.130296,-0.91245 -2.545866,-1.71348 -4.180884,-2.36582 -1.480203,-0.59058 -2.259979,-1.0911 -3.895414,-2.50041 -0.465005,-0.40071 -0.973141,-0.82987 -1.129187,-0.95368 l -0.283722,-0.22513 1.046687,-2.35706 c 0.575676,-1.29638 1.146642,-2.47833 1.268815,-2.62655 0.403214,-0.48917 1.981454,-1.87704 3.013272,-2.64982 1.52894,-1.14509 2.175768,-1.52233 2.87577,-1.67715 0.323001,-0.0714 1.066265,-0.27694 1.651704,-0.45666 2.878239,-0.88358 3.888919,-0.90499 4.652479,-0.0985 0.41659,0.43998 0.52834,0.46894 3.39878,0.88077 2.68277,0.38489 3.40062,0.52315 3.40062,0.65494 0,0.0675 -0.84732,0.3235 -1.48654,0.44915 -0.23216,0.0457 -0.4221,0.10798 -0.4221,0.13848 0,0.0304 0.20646,0.36678 0.4588,0.74725 l 0.45882,0.69174 0.88091,0.0211 0.8809,0.0211 1.13553,0.8843 c 1.10589,0.86123 1.14325,0.8832 1.43149,0.84216 0.16278,-0.0231 0.80799,-0.0622 1.4338,-0.0866 0.89129,-0.0348 1.25715,-0.0194 1.68842,0.0716 1.51882,0.32032 2.5875,1.31189 3.13976,2.91325 l 0.19937,0.5781 0.33084,0.0435 c 0.69163,0.091 1.78721,0.40228 2.32266,0.6598 0.88374,0.42507 1.38653,0.98056 1.93905,2.14232 0.24552,0.5162 0.64119,1.33497 0.87928,1.81947 0.25751,0.52402 0.46774,1.06713 0.51889,1.34054 0.12942,0.6918 0.0424,2.13626 -0.21115,3.50449 -0.27046,1.45955 -0.3358,2.01875 -0.23588,2.01875 0.0412,0 0.57541,-0.25063 1.18704,-0.55696 0.90355,-0.45253 1.12331,-0.5369 1.17198,-0.44994 0.18768,0.33537 0.79381,1.05785 1.18281,1.40988 0.24692,0.22345 0.83716,0.67246 1.31164,0.99778 0.47449,0.32534 0.89747,0.63341 0.93996,0.68462 0.0536,0.0646 0.0554,0.43646 0.006,1.21109 -0.07,1.09839 -0.0772,1.13176 -0.40951,1.90221 -0.79614,1.84534 -1.6928,3.27905 -2.65914,4.25187 -0.35144,0.35379 -1.07474,1.04852 -1.60736,1.54386 -0.96094,0.89368 -0.97681,0.90449 -2.06348,1.40505 -4.06739,1.87359 -7.32346,2.75601 -10.76338,2.91695 l -0.96005,0.045 z m -3.08386,-20.07968 c 1.53869,-0.59638 2.22498,-2.22535 1.53123,-3.63454 -0.28156,-0.57193 -0.74267,-1.00815 -1.38973,-1.3147 -0.46612,-0.22083 -0.53406,-0.23231 -1.37507,-0.23231 -0.87505,0 -0.89084,0.004 -1.44408,0.27646 -0.62326,0.30802 -1.09969,0.77353 -1.38647,1.3547 -0.1449,0.29365 -0.17327,0.46467 -0.17393,1.04829 -6.3e-4,0.62308 0.0211,0.73915 0.20532,1.08941 0.39762,0.75624 1.05078,1.28656 1.87745,1.52435 0.51506,0.14814 1.63458,0.0902 2.15528,-0.11164 z"
       id="path5768" />
  </g>
</svg>
